<mxfile host="app.diagrams.net" modified="2023-06-28T19:45:51.405Z" agent="Mozilla/5.0 (Macintosh; Intel Mac OS X 10_15_7) AppleWebKit/537.36 (KHTML, like Gecko) Chrome/114.0.0.0 Safari/537.36" etag="e8LwlodD44RiirTE4I9N" version="21.5.1" type="device">
  <diagram name="Page-1" id="0783ab3e-0a74-02c8-0abd-f7b4e66b4bec">
    <mxGraphModel dx="1063" dy="1644" grid="1" gridSize="10" guides="1" tooltips="1" connect="1" arrows="1" fold="1" page="1" pageScale="1" pageWidth="850" pageHeight="1100" background="none" math="0" shadow="0">
      <root>
        <mxCell id="0" />
        <mxCell id="1" parent="0" />
        <mxCell id="oy_WeAg9NwZ28KZ1pKsf-3" value="" style="ellipse;whiteSpace=wrap;html=1;rounded=0;shadow=0;comic=0;labelBackgroundColor=none;strokeWidth=1;fillColor=#000000;fontFamily=Verdana;fontSize=12;align=center;" vertex="1" parent="1">
          <mxGeometry x="350" y="20" width="40" height="40" as="geometry" />
        </mxCell>
        <mxCell id="oy_WeAg9NwZ28KZ1pKsf-4" value="Zrobienie zapasowego backup&#39;u danych" style="rounded=1;whiteSpace=wrap;html=1;shadow=0;comic=0;labelBackgroundColor=none;strokeWidth=1;fontFamily=Verdana;fontSize=12;align=center;arcSize=50;" vertex="1" parent="1">
          <mxGeometry x="290" y="280" width="170" height="30" as="geometry" />
        </mxCell>
        <mxCell id="oy_WeAg9NwZ28KZ1pKsf-13" value="" style="endArrow=classic;html=1;rounded=0;exitX=0.5;exitY=1;exitDx=0;exitDy=0;" edge="1" parent="1" source="oy_WeAg9NwZ28KZ1pKsf-3">
          <mxGeometry width="50" height="50" relative="1" as="geometry">
            <mxPoint x="400" y="170" as="sourcePoint" />
            <mxPoint x="370" y="120" as="targetPoint" />
          </mxGeometry>
        </mxCell>
        <mxCell id="oy_WeAg9NwZ28KZ1pKsf-14" value="Wykrycie poważnej usterki lub błędu systemu" style="rounded=1;whiteSpace=wrap;html=1;shadow=0;comic=0;labelBackgroundColor=none;strokeWidth=1;fontFamily=Verdana;fontSize=12;align=center;arcSize=50;" vertex="1" parent="1">
          <mxGeometry x="290" y="120" width="170" height="40" as="geometry" />
        </mxCell>
        <mxCell id="oy_WeAg9NwZ28KZ1pKsf-15" value="" style="endArrow=classic;html=1;rounded=0;exitX=0.5;exitY=1;exitDx=0;exitDy=0;" edge="1" parent="1" source="oy_WeAg9NwZ28KZ1pKsf-14">
          <mxGeometry width="50" height="50" relative="1" as="geometry">
            <mxPoint x="370" y="300" as="sourcePoint" />
            <mxPoint x="375" y="200" as="targetPoint" />
          </mxGeometry>
        </mxCell>
        <mxCell id="oy_WeAg9NwZ28KZ1pKsf-16" value="Zapisanie danych dotyczących awarii, takich jak rodzaj błędu, czas i miejsce wystąpienia" style="rounded=1;whiteSpace=wrap;html=1;shadow=0;comic=0;labelBackgroundColor=none;strokeWidth=1;fontFamily=Verdana;fontSize=12;align=center;arcSize=50;" vertex="1" parent="1">
          <mxGeometry x="285" y="440" width="180" height="70" as="geometry" />
        </mxCell>
        <mxCell id="oy_WeAg9NwZ28KZ1pKsf-21" value="" style="endArrow=classic;html=1;rounded=0;exitX=0.5;exitY=1;exitDx=0;exitDy=0;entryX=0.5;entryY=0;entryDx=0;entryDy=0;" edge="1" parent="1" source="oy_WeAg9NwZ28KZ1pKsf-16">
          <mxGeometry width="50" height="50" relative="1" as="geometry">
            <mxPoint x="340" y="710" as="sourcePoint" />
            <mxPoint x="375" y="540" as="targetPoint" />
          </mxGeometry>
        </mxCell>
        <mxCell id="oy_WeAg9NwZ28KZ1pKsf-22" value="Dokładne zbadanie przyczyny awarii i podjęcie odpowiednich działań naprawczych" style="rounded=1;whiteSpace=wrap;html=1;shadow=0;comic=0;labelBackgroundColor=none;strokeWidth=1;fontFamily=Verdana;fontSize=12;align=center;arcSize=50;" vertex="1" parent="1">
          <mxGeometry x="285" y="350" width="180" height="70" as="geometry" />
        </mxCell>
        <mxCell id="oy_WeAg9NwZ28KZ1pKsf-23" value="Wyświetlenie komunikatu wskazującego na awarię" style="rounded=1;whiteSpace=wrap;html=1;shadow=0;comic=0;labelBackgroundColor=none;strokeWidth=1;fontFamily=Verdana;fontSize=12;align=center;arcSize=50;" vertex="1" parent="1">
          <mxGeometry x="285" y="200" width="180" height="50" as="geometry" />
        </mxCell>
        <mxCell id="oy_WeAg9NwZ28KZ1pKsf-24" value="" style="endArrow=classic;html=1;rounded=0;exitX=0.5;exitY=1;exitDx=0;exitDy=0;entryX=0.5;entryY=0;entryDx=0;entryDy=0;" edge="1" parent="1" source="oy_WeAg9NwZ28KZ1pKsf-23" target="oy_WeAg9NwZ28KZ1pKsf-4">
          <mxGeometry width="50" height="50" relative="1" as="geometry">
            <mxPoint x="550" y="320" as="sourcePoint" />
            <mxPoint x="600" y="270" as="targetPoint" />
          </mxGeometry>
        </mxCell>
        <mxCell id="oy_WeAg9NwZ28KZ1pKsf-25" value="" style="endArrow=classic;html=1;rounded=0;exitX=0.5;exitY=1;exitDx=0;exitDy=0;" edge="1" parent="1" source="oy_WeAg9NwZ28KZ1pKsf-4" target="oy_WeAg9NwZ28KZ1pKsf-22">
          <mxGeometry width="50" height="50" relative="1" as="geometry">
            <mxPoint x="530" y="450" as="sourcePoint" />
            <mxPoint x="580" y="400" as="targetPoint" />
          </mxGeometry>
        </mxCell>
        <mxCell id="oy_WeAg9NwZ28KZ1pKsf-26" value="" style="endArrow=classic;html=1;rounded=0;exitX=0.465;exitY=1.004;exitDx=0;exitDy=0;exitPerimeter=0;entryX=0.46;entryY=0.033;entryDx=0;entryDy=0;entryPerimeter=0;" edge="1" parent="1" source="oy_WeAg9NwZ28KZ1pKsf-22" target="oy_WeAg9NwZ28KZ1pKsf-16">
          <mxGeometry width="50" height="50" relative="1" as="geometry">
            <mxPoint x="420" y="590" as="sourcePoint" />
            <mxPoint x="470" y="540" as="targetPoint" />
          </mxGeometry>
        </mxCell>
        <mxCell id="oy_WeAg9NwZ28KZ1pKsf-27" value="Błąd systemu" style="rounded=1;whiteSpace=wrap;html=1;shadow=0;comic=0;labelBackgroundColor=none;strokeWidth=1;fontFamily=Verdana;fontSize=12;align=center;arcSize=50;" vertex="1" parent="1">
          <mxGeometry x="480" y="570" width="135" height="30" as="geometry" />
        </mxCell>
        <mxCell id="oy_WeAg9NwZ28KZ1pKsf-28" value="" style="whiteSpace=wrap;html=1;rounded=0;shadow=0;comic=0;labelBackgroundColor=none;strokeWidth=1;fillColor=#000000;fontFamily=Verdana;fontSize=12;align=center;rotation=0;" vertex="1" parent="1">
          <mxGeometry x="301.5" y="540" width="147" height="10" as="geometry" />
        </mxCell>
        <mxCell id="oy_WeAg9NwZ28KZ1pKsf-29" value="" style="endArrow=classic;html=1;rounded=0;exitX=0.75;exitY=1;exitDx=0;exitDy=0;" edge="1" parent="1" source="oy_WeAg9NwZ28KZ1pKsf-28">
          <mxGeometry width="50" height="50" relative="1" as="geometry">
            <mxPoint x="480" y="590" as="sourcePoint" />
            <mxPoint x="480" y="590" as="targetPoint" />
          </mxGeometry>
        </mxCell>
        <mxCell id="oy_WeAg9NwZ28KZ1pKsf-30" value="Poważna usterka" style="rounded=1;whiteSpace=wrap;html=1;shadow=0;comic=0;labelBackgroundColor=none;strokeWidth=1;fontFamily=Verdana;fontSize=12;align=center;arcSize=50;" vertex="1" parent="1">
          <mxGeometry x="140" y="570" width="135" height="30" as="geometry" />
        </mxCell>
        <mxCell id="oy_WeAg9NwZ28KZ1pKsf-31" value="" style="endArrow=classic;html=1;rounded=0;exitX=0.25;exitY=1;exitDx=0;exitDy=0;entryX=1;entryY=0.5;entryDx=0;entryDy=0;" edge="1" parent="1" source="oy_WeAg9NwZ28KZ1pKsf-28" target="oy_WeAg9NwZ28KZ1pKsf-30">
          <mxGeometry width="50" height="50" relative="1" as="geometry">
            <mxPoint x="310" y="690" as="sourcePoint" />
            <mxPoint x="360" y="640" as="targetPoint" />
          </mxGeometry>
        </mxCell>
        <mxCell id="oy_WeAg9NwZ28KZ1pKsf-32" value="" style="endArrow=classic;html=1;rounded=0;exitX=0.5;exitY=1;exitDx=0;exitDy=0;entryX=0.25;entryY=0;entryDx=0;entryDy=0;" edge="1" parent="1" source="oy_WeAg9NwZ28KZ1pKsf-30" target="oy_WeAg9NwZ28KZ1pKsf-55">
          <mxGeometry width="50" height="50" relative="1" as="geometry">
            <mxPoint x="170" y="670" as="sourcePoint" />
            <mxPoint x="208" y="640" as="targetPoint" />
          </mxGeometry>
        </mxCell>
        <mxCell id="oy_WeAg9NwZ28KZ1pKsf-33" value="System przechodzi w stan uśpienia" style="rounded=1;whiteSpace=wrap;html=1;shadow=0;comic=0;labelBackgroundColor=none;strokeWidth=1;fontFamily=Verdana;fontSize=12;align=center;arcSize=50;" vertex="1" parent="1">
          <mxGeometry x="180" y="1190" width="170" height="40" as="geometry" />
        </mxCell>
        <mxCell id="oy_WeAg9NwZ28KZ1pKsf-34" value="" style="endArrow=classic;html=1;rounded=0;" edge="1" parent="1">
          <mxGeometry width="50" height="50" relative="1" as="geometry">
            <mxPoint x="548" y="600" as="sourcePoint" />
            <mxPoint x="548" y="640" as="targetPoint" />
          </mxGeometry>
        </mxCell>
        <mxCell id="oy_WeAg9NwZ28KZ1pKsf-35" value="Próba zresetowania modułu odpowiedzialnego za błąd" style="rounded=1;whiteSpace=wrap;html=1;shadow=0;comic=0;labelBackgroundColor=none;strokeWidth=1;fontFamily=Verdana;fontSize=12;align=center;arcSize=50;" vertex="1" parent="1">
          <mxGeometry x="465" y="640" width="170" height="70" as="geometry" />
        </mxCell>
        <mxCell id="oy_WeAg9NwZ28KZ1pKsf-36" value="Próba usunięcia błędu zakończona niepowodzeniem" style="rounded=1;whiteSpace=wrap;html=1;shadow=0;comic=0;labelBackgroundColor=none;strokeWidth=1;fontFamily=Verdana;fontSize=12;align=center;arcSize=50;" vertex="1" parent="1">
          <mxGeometry x="380" y="800" width="125" height="60" as="geometry" />
        </mxCell>
        <mxCell id="oy_WeAg9NwZ28KZ1pKsf-37" value="Próba usunięcia błędu zakończona powodzeniem" style="rounded=1;whiteSpace=wrap;html=1;shadow=0;comic=0;labelBackgroundColor=none;strokeWidth=1;fontFamily=Verdana;fontSize=12;align=center;arcSize=50;" vertex="1" parent="1">
          <mxGeometry x="615" y="800" width="125" height="60" as="geometry" />
        </mxCell>
        <mxCell id="oy_WeAg9NwZ28KZ1pKsf-38" value="" style="endArrow=classic;html=1;rounded=0;exitX=0.5;exitY=1;exitDx=0;exitDy=0;" edge="1" parent="1" source="oy_WeAg9NwZ28KZ1pKsf-35">
          <mxGeometry width="50" height="50" relative="1" as="geometry">
            <mxPoint x="440" y="750" as="sourcePoint" />
            <mxPoint x="550" y="750" as="targetPoint" />
          </mxGeometry>
        </mxCell>
        <mxCell id="oy_WeAg9NwZ28KZ1pKsf-39" value="" style="whiteSpace=wrap;html=1;rounded=0;shadow=0;comic=0;labelBackgroundColor=none;strokeWidth=1;fillColor=#000000;fontFamily=Verdana;fontSize=12;align=center;rotation=0;" vertex="1" parent="1">
          <mxGeometry x="480" y="750" width="147" height="10" as="geometry" />
        </mxCell>
        <mxCell id="oy_WeAg9NwZ28KZ1pKsf-40" value="" style="endArrow=classic;html=1;rounded=0;exitX=0.25;exitY=1;exitDx=0;exitDy=0;entryX=0.75;entryY=0;entryDx=0;entryDy=0;" edge="1" parent="1" source="oy_WeAg9NwZ28KZ1pKsf-39" target="oy_WeAg9NwZ28KZ1pKsf-36">
          <mxGeometry width="50" height="50" relative="1" as="geometry">
            <mxPoint x="530" y="930" as="sourcePoint" />
            <mxPoint x="580" y="880" as="targetPoint" />
          </mxGeometry>
        </mxCell>
        <mxCell id="oy_WeAg9NwZ28KZ1pKsf-41" value="" style="endArrow=classic;html=1;rounded=0;exitX=0.75;exitY=1;exitDx=0;exitDy=0;entryX=0.25;entryY=0;entryDx=0;entryDy=0;" edge="1" parent="1" source="oy_WeAg9NwZ28KZ1pKsf-39" target="oy_WeAg9NwZ28KZ1pKsf-37">
          <mxGeometry width="50" height="50" relative="1" as="geometry">
            <mxPoint x="480" y="930" as="sourcePoint" />
            <mxPoint x="530" y="880" as="targetPoint" />
          </mxGeometry>
        </mxCell>
        <mxCell id="oy_WeAg9NwZ28KZ1pKsf-42" value="" style="endArrow=classic;html=1;rounded=0;exitX=0.5;exitY=1;exitDx=0;exitDy=0;" edge="1" parent="1" source="oy_WeAg9NwZ28KZ1pKsf-37">
          <mxGeometry width="50" height="50" relative="1" as="geometry">
            <mxPoint x="700" y="1000" as="sourcePoint" />
            <mxPoint x="678" y="900" as="targetPoint" />
          </mxGeometry>
        </mxCell>
        <mxCell id="oy_WeAg9NwZ28KZ1pKsf-43" value="Testowanie i weryfikacja poprawności działania systemu po usunięciu awarii" style="rounded=1;whiteSpace=wrap;html=1;shadow=0;comic=0;labelBackgroundColor=none;strokeWidth=1;fontFamily=Verdana;fontSize=12;align=center;arcSize=50;" vertex="1" parent="1">
          <mxGeometry x="580" y="900" width="195" height="60" as="geometry" />
        </mxCell>
        <mxCell id="oy_WeAg9NwZ28KZ1pKsf-44" value="" style="whiteSpace=wrap;html=1;rounded=0;shadow=0;comic=0;labelBackgroundColor=none;strokeWidth=1;fillColor=#000000;fontFamily=Verdana;fontSize=12;align=center;rotation=0;" vertex="1" parent="1">
          <mxGeometry x="604" y="980" width="147" height="10" as="geometry" />
        </mxCell>
        <mxCell id="oy_WeAg9NwZ28KZ1pKsf-45" value="" style="endArrow=classic;html=1;rounded=0;exitX=0.5;exitY=1;exitDx=0;exitDy=0;entryX=0.5;entryY=0;entryDx=0;entryDy=0;" edge="1" parent="1" source="oy_WeAg9NwZ28KZ1pKsf-43" target="oy_WeAg9NwZ28KZ1pKsf-44">
          <mxGeometry width="50" height="50" relative="1" as="geometry">
            <mxPoint x="320" y="1030" as="sourcePoint" />
            <mxPoint x="370" y="980" as="targetPoint" />
          </mxGeometry>
        </mxCell>
        <mxCell id="oy_WeAg9NwZ28KZ1pKsf-46" value="" style="endArrow=classic;html=1;rounded=0;exitX=0.75;exitY=1;exitDx=0;exitDy=0;" edge="1" parent="1" source="oy_WeAg9NwZ28KZ1pKsf-44">
          <mxGeometry width="50" height="50" relative="1" as="geometry">
            <mxPoint x="630" y="1100" as="sourcePoint" />
            <mxPoint x="760" y="1040" as="targetPoint" />
          </mxGeometry>
        </mxCell>
        <mxCell id="oy_WeAg9NwZ28KZ1pKsf-47" value="" style="endArrow=classic;html=1;rounded=0;exitX=0.25;exitY=1;exitDx=0;exitDy=0;" edge="1" parent="1" source="oy_WeAg9NwZ28KZ1pKsf-44">
          <mxGeometry width="50" height="50" relative="1" as="geometry">
            <mxPoint x="580" y="1080" as="sourcePoint" />
            <mxPoint x="610" y="1040" as="targetPoint" />
          </mxGeometry>
        </mxCell>
        <mxCell id="oy_WeAg9NwZ28KZ1pKsf-48" value="System wciąż działa nieprawidłowo" style="rounded=1;whiteSpace=wrap;html=1;shadow=0;comic=0;labelBackgroundColor=none;strokeWidth=1;fontFamily=Verdana;fontSize=12;align=center;arcSize=50;" vertex="1" parent="1">
          <mxGeometry x="518" y="1040" width="137" height="50" as="geometry" />
        </mxCell>
        <mxCell id="oy_WeAg9NwZ28KZ1pKsf-49" value="System działa prawidłowo" style="rounded=1;whiteSpace=wrap;html=1;shadow=0;comic=0;labelBackgroundColor=none;strokeWidth=1;fontFamily=Verdana;fontSize=12;align=center;arcSize=50;" vertex="1" parent="1">
          <mxGeometry x="713" y="1040" width="137" height="50" as="geometry" />
        </mxCell>
        <mxCell id="oy_WeAg9NwZ28KZ1pKsf-50" value="" style="endArrow=classic;html=1;rounded=0;exitX=0.5;exitY=1;exitDx=0;exitDy=0;" edge="1" parent="1" source="oy_WeAg9NwZ28KZ1pKsf-49">
          <mxGeometry width="50" height="50" relative="1" as="geometry">
            <mxPoint x="790" y="1120" as="sourcePoint" />
            <mxPoint x="782" y="1150" as="targetPoint" />
          </mxGeometry>
        </mxCell>
        <mxCell id="oy_WeAg9NwZ28KZ1pKsf-51" value="Wznowienie normalnej pracy stacji pogodowej" style="rounded=1;whiteSpace=wrap;html=1;shadow=0;comic=0;labelBackgroundColor=none;strokeWidth=1;fontFamily=Verdana;fontSize=12;align=center;arcSize=50;" vertex="1" parent="1">
          <mxGeometry x="713" y="1150" width="137" height="50" as="geometry" />
        </mxCell>
        <mxCell id="oy_WeAg9NwZ28KZ1pKsf-52" value="" style="endArrow=classic;html=1;rounded=0;exitX=0.5;exitY=1;exitDx=0;exitDy=0;" edge="1" parent="1" source="oy_WeAg9NwZ28KZ1pKsf-51">
          <mxGeometry width="50" height="50" relative="1" as="geometry">
            <mxPoint x="680" y="1320" as="sourcePoint" />
            <mxPoint x="780" y="1240" as="targetPoint" />
          </mxGeometry>
        </mxCell>
        <mxCell id="oy_WeAg9NwZ28KZ1pKsf-53" value="" style="shape=mxgraph.bpmn.shape;html=1;verticalLabelPosition=bottom;labelBackgroundColor=#ffffff;verticalAlign=top;perimeter=ellipsePerimeter;outline=end;symbol=terminate;rounded=0;shadow=0;comic=0;strokeWidth=1;fontFamily=Verdana;fontSize=12;align=center;" vertex="1" parent="1">
          <mxGeometry x="761.5" y="1240" width="40" height="40" as="geometry" />
        </mxCell>
        <mxCell id="oy_WeAg9NwZ28KZ1pKsf-54" value="" style="endArrow=classic;html=1;rounded=0;exitX=0.25;exitY=1;exitDx=0;exitDy=0;entryX=0.75;entryY=0;entryDx=0;entryDy=0;" edge="1" parent="1" source="oy_WeAg9NwZ28KZ1pKsf-48" target="oy_WeAg9NwZ28KZ1pKsf-55">
          <mxGeometry width="50" height="50" relative="1" as="geometry">
            <mxPoint x="360" y="1060" as="sourcePoint" />
            <mxPoint x="310" y="1110" as="targetPoint" />
            <Array as="points">
              <mxPoint x="552" y="1110" />
              <mxPoint x="302" y="1110" />
            </Array>
          </mxGeometry>
        </mxCell>
        <mxCell id="oy_WeAg9NwZ28KZ1pKsf-55" value="" style="whiteSpace=wrap;html=1;rounded=0;shadow=0;comic=0;labelBackgroundColor=none;strokeWidth=1;fillColor=#000000;fontFamily=Verdana;fontSize=12;align=center;rotation=0;" vertex="1" parent="1">
          <mxGeometry x="191.5" y="1150" width="147" height="10" as="geometry" />
        </mxCell>
        <mxCell id="oy_WeAg9NwZ28KZ1pKsf-56" value="" style="endArrow=classic;html=1;rounded=0;exitX=0.5;exitY=1;exitDx=0;exitDy=0;entryX=0.5;entryY=0;entryDx=0;entryDy=0;" edge="1" parent="1" source="oy_WeAg9NwZ28KZ1pKsf-36" target="oy_WeAg9NwZ28KZ1pKsf-55">
          <mxGeometry width="50" height="50" relative="1" as="geometry">
            <mxPoint x="370" y="1010" as="sourcePoint" />
            <mxPoint x="420" y="960" as="targetPoint" />
          </mxGeometry>
        </mxCell>
        <mxCell id="oy_WeAg9NwZ28KZ1pKsf-57" value="" style="endArrow=classic;html=1;rounded=0;exitX=0.454;exitY=1.091;exitDx=0;exitDy=0;exitPerimeter=0;" edge="1" parent="1" source="oy_WeAg9NwZ28KZ1pKsf-55">
          <mxGeometry width="50" height="50" relative="1" as="geometry">
            <mxPoint x="390" y="1360" as="sourcePoint" />
            <mxPoint x="258" y="1190" as="targetPoint" />
          </mxGeometry>
        </mxCell>
        <mxCell id="oy_WeAg9NwZ28KZ1pKsf-58" value="" style="endArrow=classic;html=1;rounded=0;exitX=0.5;exitY=1;exitDx=0;exitDy=0;" edge="1" parent="1" source="oy_WeAg9NwZ28KZ1pKsf-33">
          <mxGeometry width="50" height="50" relative="1" as="geometry">
            <mxPoint x="340" y="1370" as="sourcePoint" />
            <mxPoint x="265" y="1270" as="targetPoint" />
          </mxGeometry>
        </mxCell>
        <mxCell id="oy_WeAg9NwZ28KZ1pKsf-59" value="" style="shape=mxgraph.bpmn.shape;html=1;verticalLabelPosition=bottom;labelBackgroundColor=#ffffff;verticalAlign=top;perimeter=ellipsePerimeter;outline=end;symbol=terminate;rounded=0;shadow=0;comic=0;strokeWidth=1;fontFamily=Verdana;fontSize=12;align=center;" vertex="1" parent="1">
          <mxGeometry x="245" y="1270" width="40" height="40" as="geometry" />
        </mxCell>
        <mxCell id="oy_WeAg9NwZ28KZ1pKsf-60" value="&lt;font style=&quot;font-size: 24px;&quot;&gt;Awaryjny&lt;/font&gt;" style="text;html=1;strokeColor=none;fillColor=none;align=center;verticalAlign=middle;whiteSpace=wrap;rounded=0;" vertex="1" parent="1">
          <mxGeometry x="290" y="-20" width="160" height="30" as="geometry" />
        </mxCell>
      </root>
    </mxGraphModel>
  </diagram>
</mxfile>
